<svg xmlns="http://www.w3.org/2000/svg" xmlns:xlink="http://www.w3.org/1999/xlink" version="1.1" x="0px" y="0px" viewBox="0 0 100 125" enable-background="new 0 0 100 100" xml:space="preserve"><g><path fill="#21242b" d="M89.595,42.646c0.587,0,1.063-0.476,1.063-1.063v-2.365h2.223c0.587,0,1.063-0.476,1.063-1.063V9.069   c0-0.587-0.477-1.063-1.063-1.063H82.691c-0.587,0-1.063,0.476-1.063,1.063v29.085c0,0.587,0.477,1.063,1.063,1.063h1.969v2.365   c0,0.587,0.477,1.063,1.063,1.063h1.036v0.444H75.656v-0.444h0.835c0.587,0,1.063-0.476,1.063-1.063v-2.365h2.1   c0.587,0,1.063-0.476,1.063-1.063V9.069c0-0.587-0.477-1.063-1.063-1.063h-10.19c-0.587,0-1.063,0.476-1.063,1.063v11.197   c-0.002,0.001-0.004,0.002-0.006,0.004l-2.875,2.903c-0.056-0.061-0.1-0.132-0.159-0.188c-0.194-0.72-0.854-1.251-1.634-1.251   h-9.024c-0.567,0-1.071,0.28-1.379,0.708c-0.229-0.319-0.564-0.555-0.953-0.655V20.87h0.206c0.587,0,1.063-0.476,1.063-1.063   v-2.836c0-0.587-0.477-1.063-1.063-1.063h-6.295c-0.587,0-1.063,0.476-1.063,1.063v2.836c0,0.587,0.476,1.063,1.063,1.063h0.208   v0.916c-0.39,0.1-0.727,0.337-0.955,0.657c-0.308-0.429-0.811-0.709-1.378-0.709h-4.487c-0.184-0.24-0.379-0.473-0.595-0.691   c-1.354-1.368-3.156-2.125-5.079-2.134c-1.174,0-2.282,0.288-3.266,0.787V9.069c0-0.587-0.476-1.063-1.063-1.063H19.475   c-0.587,0-1.063,0.476-1.063,1.063v29.086c0,0.587,0.476,1.063,1.063,1.063h1.973v2.364c0,0.587,0.476,1.063,1.063,1.063h0.963   v0.367H12.368v-0.367h0.911c0.587,0,1.063-0.476,1.063-1.063v-2.364h2.095c0.587,0,1.063-0.476,1.063-1.063V9.069   c0-0.587-0.476-1.063-1.063-1.063H6.25c-0.587,0-1.063,0.476-1.063,1.063v29.086c0,0.587,0.476,1.063,1.063,1.063h2.095v2.364   c0,0.587,0.476,1.063,1.063,1.063h0.834v1.389c0,0.014-0.008,0.026-0.008,0.041v4.397c0,0.015,0.008,0.027,0.008,0.041v1.37H9.408   c-0.587,0-1.063,0.476-1.063,1.063v2.462H6.249c-0.587,0-1.063,0.477-1.063,1.063v29.085c0,0.587,0.476,1.063,1.063,1.063h10.188   c0.587,0,1.063-0.477,1.063-1.063V54.472c0-0.587-0.476-1.063-1.063-1.063h-2.095v-2.462c0-0.587-0.476-1.063-1.063-1.063h-0.911   v-0.348h11.105v0.348h-0.963c-0.587,0-1.063,0.476-1.063,1.063v2.462h-1.973c-0.587,0-1.063,0.477-1.063,1.063v29.085   c0,0.587,0.476,1.063,1.063,1.063h6.176v2.485c0,0.587,0.476,1.063,1.063,1.063h16.744c0.587,0,1.063-0.477,1.063-1.063v-1.324   h1.092v1.779c0,0.701,0.453,1.3,1.127,1.519c0.17,0.181,0.361,0.342,0.57,0.483l-1.402,2.804c-0.074,0.147-0.112,0.311-0.112,0.476   v3.327c0,0.587,0.476,1.063,1.063,1.063h5.569c0.587,0,1.063-0.477,1.063-1.063v-3.327c0-0.175-0.043-0.347-0.126-0.5l-1.51-2.831   c0.176-0.125,0.346-0.258,0.493-0.412c0.663-0.199,1.147-0.813,1.147-1.538v-1.779h1.074v1.324c0,0.587,0.477,1.063,1.063,1.063   h16.743c0.587,0,1.063-0.477,1.063-1.063V84.62h6.214c0.587,0,1.063-0.477,1.063-1.063V54.471c0-0.587-0.477-1.063-1.063-1.063   h-2.1v-2.461c0-0.587-0.477-1.063-1.063-1.063h-0.835v-0.27H86.76v0.27h-1.036c-0.587,0-1.063,0.476-1.063,1.063v2.461h-1.969   c-0.587,0-1.063,0.477-1.063,1.063v29.086c0,0.587,0.477,1.063,1.063,1.063h10.188c0.587,0,1.063-0.477,1.063-1.063V54.471   c0-0.587-0.477-1.063-1.063-1.063h-2.221v-2.461c0-0.587-0.477-1.063-1.063-1.063h-0.708v-1.29   c0.001-0.015,0.009-0.028,0.009-0.043v-4.397c0-0.016-0.008-0.028-0.009-0.043v-1.464H89.595z M91.817,22.224h-8.062v-5.013h8.062   V22.224z M83.755,24.35h8.062v5.011h-8.062V24.35z M91.817,10.132v4.953h-8.062v-4.953H91.817z M83.755,31.487h8.062v5.605h-8.062   V31.487z M15.375,22.223H7.313v-5.01h8.062V22.223z M7.313,24.349h8.062v5.012H7.313V24.349z M15.375,10.132v4.954H7.313v-4.954   H15.375z M7.313,31.486h8.062v5.606H7.313V31.486z M12.216,40.52h-1.745v-1.275h1.745V40.52z M7.312,70.401h8.062v5.012H7.312   V70.401z M15.375,68.274H7.312v-5.009h8.062V68.274z M7.312,82.493V77.54h8.062v4.953H7.312z M15.375,61.139H7.312v-5.604h8.062   V61.139z M10.471,52.01h1.745v1.274h-1.745V52.01z M83.755,70.403h8.061v5.009h-8.061V70.403z M91.815,68.276h-8.061v-5.011h8.061   V68.276z M83.755,82.493v-4.954h8.061v4.954H83.755z M91.815,61.139h-8.061v-5.604h8.061V61.139z M86.787,52.01h1.744v1.274h-1.744   V52.01z M75.01,47.487c-0.128-0.055-0.269-0.086-0.417-0.086c-0.052,0-0.096,0.022-0.146,0.029l1.04-1.325l1.083,1.382H75.01z    M69.313,46.106l1.082,1.381H68.23L69.313,46.106z M66.752,45.927v-0.711h0.558L66.752,45.927z M71.316,45.216h2.167l-1.084,1.381   L71.316,45.216z M77.491,45.216h2.166l-1.084,1.381L77.491,45.216z M81.661,46.106l1.082,1.381h-2.166L81.661,46.106z    M83.664,45.216h2.164l-1.082,1.38L83.664,45.216z M75.428,40.52h-1.743v-1.275h1.743V40.52z M70.527,37.092v-4.997h1.786   c0.422,0,0.78-0.251,0.952-0.608h5.325v5.605H70.527z M70.527,17.211h8.063v5.013h-5.214v-1.206c0-0.587-0.477-1.063-1.063-1.063   h-1.786V17.211z M73.377,24.35h5.214v5.011h-5.214V24.35z M78.591,10.132v4.953h-8.063v-4.953H78.591z M66.625,25.077l2.968-2.996   h1.657v7.888h-1.677l-2.973-2.813c-0.028-0.026-0.064-0.036-0.094-0.059c0.069-0.321,0.114-0.651,0.114-0.99   c0-0.33-0.037-0.649-0.101-0.959C66.554,25.121,66.594,25.108,66.625,25.077z M65.36,29.225c0.055-0.052,0.096-0.121,0.147-0.177   l2.893,2.738v6.369c0,0.587,0.477,1.063,1.063,1.063h2.094v2.365c0,0.587,0.477,1.063,1.063,1.063h0.908v0.444h-6.816v-0.867   c0-0.587-0.477-1.063-1.063-1.063H53.639V30.102c0.29,0.233,0.659,0.373,1.06,0.373h9.028   C64.507,30.475,65.166,29.944,65.36,29.225z M43.775,23.859c0.071,0.22,0.213,0.415,0.408,0.55   c0.233,0.161,0.437,0.436,0.575,0.774c0.163,0.401,0.552,0.663,0.985,0.663h0.538c0.587,0,1.063-0.476,1.063-1.063v-0.923h0.208   c0.587,0,1.063-0.476,1.063-1.063v-2.989c0-0.587-0.476-1.063-1.063-1.063h-0.208v-0.71h4.168v0.71h-0.206   c-0.587,0-1.063,0.476-1.063,1.063v2.989c0,0.587,0.476,1.063,1.063,1.063h0.206v0.923c0,0.587,0.477,1.063,1.063,1.063h0.54   c0.434,0,0.824-0.264,0.986-0.667c0.134-0.333,0.338-0.608,0.575-0.774c0.192-0.135,0.332-0.328,0.402-0.546h8.265   c0.07,0.219,0.21,0.412,0.403,0.547c0.454,0.316,0.746,0.984,0.746,1.701c0,0.715-0.293,1.383-0.748,1.701   c-0.191,0.134-0.33,0.325-0.4,0.542h-8.269c-0.07-0.217-0.21-0.408-0.401-0.542c-0.238-0.167-0.443-0.442-0.576-0.776   c-0.162-0.403-0.553-0.668-0.987-0.668h-0.537c-0.587,0-1.063,0.476-1.063,1.063V41.16h-1.011v-4.594   c0-0.587-0.476-1.063-1.063-1.063s-1.063,0.476-1.063,1.063v4.594H47.34V27.426c0-0.587-0.476-1.063-1.063-1.063h-0.539   c-0.433,0-0.823,0.263-0.985,0.665c-0.136,0.336-0.342,0.613-0.581,0.781c-0.19,0.134-0.329,0.325-0.399,0.541h-2.978   c0.229-0.695,0.357-1.436,0.36-2.206c0.005-0.789-0.124-1.556-0.362-2.285H43.775z M37.562,22.538   c0.955,0.964,1.476,2.241,1.468,3.596c-0.01,2.781-2.284,5.043-5.068,5.043v1.063l-0.026-1.063c-2.794-0.015-5.06-2.303-5.05-5.097   c0.02-2.782,2.312-5.045,5.105-5.045C35.34,21.04,36.609,21.574,37.562,22.538z M27.92,22.223h-7.382v-5.01h8.065v4.099   c0,0.006,0.003,0.011,0.003,0.017C28.356,21.608,28.126,21.906,27.92,22.223z M20.538,24.349h6.452   c-0.141,0.552-0.226,1.126-0.23,1.72c-0.004,1.185,0.285,2.303,0.791,3.292h-7.013V24.349z M28.604,10.132v4.954h-8.065v-4.954   H28.604z M20.538,31.486h8.065v5.606h-8.065V31.486z M23.574,40.52v-1.275h1.746v1.275H23.574z M25.6,42.646h0.783   c0.587,0,1.063-0.476,1.063-1.063v-2.364h2.221c0.587,0,1.063-0.476,1.063-1.063v-5.632c0.964,0.488,2.049,0.772,3.201,0.779h0.032   c2.321,0,4.386-1.113,5.703-2.827h4.486c0.402,0,0.771-0.14,1.062-0.375v11.06H33.511c-0.587,0-1.063,0.476-1.063,1.063v0.789H25.6   V42.646z M24.5,45.138c0.013,0,0.023,0.007,0.036,0.007s0.023-0.007,0.036-0.007h0.154l-1.085,1.382l-1.083-1.382H24.5z    M15.466,47.41h-2.165l1.083-1.381L15.466,47.41z M16.387,45.138h2.166L17.47,46.52L16.387,45.138z M20.556,46.029l1.082,1.38   h-2.164L20.556,46.029z M26.73,46.028l1.083,1.381h-2.167L26.73,46.028z M28.734,45.138H30.9l-1.083,1.381L28.734,45.138z    M32.378,46.698v0.711H31.82L32.378,46.698z M12.38,45.138l-0.012,0.016v-0.016H12.38z M23.574,52.01h1.746v1.274h-1.746V52.01z    M28.604,55.535v5.604h-8.065v-5.604H28.604z M42.396,82.3h-2.042v-1.69h2.042V82.3z M38.228,82.3h-2.024v-1.69h2.024V82.3z    M36.203,84.427h2.024v1.615h-2.024V84.427z M34.077,86.042h-2.028v-1.615h2.028V86.042z M34.077,82.3h-2.028v-1.69h2.028V82.3z    M29.923,80.609v1.69h-2.146v-1.69H29.923z M28.604,68.274h-8.065v-5.009h8.065V68.274z M20.538,70.401h8.065v5.012h-8.065V70.401z    M20.538,82.493V77.54h8.065v0.942h-1.889c-0.587,0-1.063,0.477-1.063,1.063v2.947H20.538z M27.777,84.427h2.146v1.615h-2.146   V84.427z M40.354,86.042v-1.615h2.042v1.615H40.354z M47.922,95.105v-1.174h3.442v1.174H47.922z M50.67,91.805h-2.104l0.801-1.602   c0.063,0.003,0.123,0.018,0.186,0.018c0.089,0,0.172-0.019,0.259-0.024L50.67,91.805z M52.433,83.654   c-0.587,0-1.063,0.477-1.063,1.063v2.412c-0.178,0.077-0.334,0.204-0.448,0.368c-0.252,0.362-0.789,0.596-1.368,0.596   c-0.578,0-1.113-0.233-1.365-0.596c-0.104-0.149-0.267-0.267-0.449-0.346v-2.435c0-0.587-0.476-1.063-1.063-1.063h-2.144v-0.615   h2.144c0.587,0,1.063-0.477,1.063-1.063v-1.848c0.177-0.077,0.332-0.202,0.446-0.364c0.215-0.307,0.297-0.387,0.462-0.454   c0.402-0.162,0.666-0.552,0.666-0.985v-0.643v-3.266v-1.438c0-0.478-0.318-0.896-0.779-1.024c-0.497-0.138-0.846-0.395-1.168-0.857   c-0.199-0.286-0.525-0.457-0.873-0.457l-0.114,0.001c-0.075-0.005-0.204-0.041-0.316-0.085v-9.359   c0.111-0.043,0.237-0.078,0.308-0.082h0.123c0.349,0,0.675-0.172,0.874-0.458c0.218-0.315,0.569-0.577,1.013-0.756   c0.402-0.162,0.666-0.553,0.666-0.986v-0.842c0.159,0.019,0.314,0.048,0.478,0.048c0.187,0,0.365-0.03,0.545-0.055v0.849   c0,0.433,0.262,0.822,0.663,0.984c0.439,0.179,0.798,0.446,1.01,0.755c0.198,0.288,0.525,0.461,0.876,0.461l0.117-0.001   c0.074,0.005,0.204,0.041,0.317,0.085v9.357c-0.111,0.044-0.238,0.08-0.309,0.084h-0.126c-0.349,0-0.675,0.172-0.874,0.458   c-0.362,0.522-0.571,0.73-1.026,0.856c-0.46,0.127-0.78,0.546-0.78,1.024v1.439v3.265v0.643c0,0.435,0.295,0.837,0.699,0.999   c0.021,0.021,0.075,0.107,0.114,0.17c0.054,0.086,0.111,0.177,0.178,0.271c0.104,0.146,0.265,0.263,0.444,0.341v1.79   c-0.001,0.025-0.003,0.053-0.003,0.079c0,0.587,0.477,1.063,1.063,1.063h2.138v0.615H52.433z M49.438,49.456h0.115h0.114   c0,0,0.001,0,0.002,0h0.066c0.458-0.003,0.832,0,1.154,0.022v0.909c-0.428-0.157-0.883-0.256-1.365-0.256   c-0.364,0-0.711,0.065-1.046,0.157v-0.825c0.261-0.009,0.554-0.009,0.893-0.006h0.065C49.437,49.456,49.438,49.456,49.438,49.456z    M47.655,54.125c0-1.03,0.838-1.868,1.869-1.868c1.029,0,1.866,0.838,1.866,1.868s-0.837,1.868-1.866,1.868   C48.493,55.993,47.655,55.155,47.655,54.125z M70.527,70.403h8.063v5.009h-8.063V70.403z M78.591,68.276h-8.063v-5.011h8.063   V68.276z M71.313,82.3h-2.04v-1.69h2.04V82.3z M67.146,82.3H65.12v-1.69h2.026V82.3z M65.12,84.427h2.026v1.615H65.12V84.427z    M62.993,86.042h-2.026v-1.615h2.026V86.042z M62.993,82.3h-2.026v-1.69h2.026V82.3z M58.84,82.3h-2.139v-0.324   c0-0.007-0.004-0.013-0.004-0.02v-1.347h2.143V82.3z M56.697,84.737c0-0.007,0.004-0.013,0.004-0.02v-0.291h2.139v1.615h-2.143   V84.737z M69.273,86.042v-1.615h2.04v1.615H69.273z M73.44,82.493v-2.947c0-0.587-0.477-1.063-1.063-1.063h-1.861   c0.001-0.021,0.012-0.039,0.012-0.061v-0.883h8.063v4.954H73.44z M78.591,61.139h-8.063v-5.604h8.063V61.139z M75.428,52.01v1.274   h-1.743V52.01H75.428z M73.529,49.883h-0.908c-0.587,0-1.063,0.476-1.063,1.063v2.461h-2.094c-0.587,0-1.063,0.477-1.063,1.063   v23.951c0,0.021,0.011,0.039,0.012,0.061H55.634c-0.587,0-1.063,0.477-1.063,1.063v1.366h-1.071v-1.208   c0-0.677-0.419-1.257-1.049-1.496c-0.096-0.144-0.217-0.305-0.387-0.459v-0.066v-3.265v-0.724c0.492-0.265,0.839-0.611,1.127-0.977   c0.812-0.155,1.988-0.696,1.988-1.765V60.796c0-1.079-1.208-1.619-2.021-1.767c-0.272-0.295-0.597-0.555-0.963-0.772v-1.184   c0.438-0.397,0.792-0.881,1.02-1.436l9.418,0.215c0.082,0.245,0.208,0.473,0.363,0.685l-2.494,4.062   c-0.059-0.007-0.114-0.023-0.174-0.026c-0.018-0.001-0.107-0.003-0.125-0.003c-1.327,0-2.423,1.04-2.495,2.373   c-0.032,0.668,0.197,1.307,0.646,1.801c0.448,0.492,1.062,0.78,1.719,0.811c0.019,0.001,0.112,0.004,0.131,0.004   c0.187,0,0.366-0.025,0.541-0.063l1.187,1.161l-0.051,1.261c-0.011,0.278,0.088,0.55,0.274,0.756l2.367,2.616   c0.21,0.232,0.498,0.351,0.788,0.351c0.255,0,0.51-0.091,0.713-0.275c0.436-0.394,0.469-1.066,0.075-1.501l-2.075-2.294l0.017-0.41   l0.41,0.025l2.074,2.292c0.21,0.232,0.498,0.351,0.788,0.351c0.255,0,0.51-0.091,0.713-0.275c0.436-0.394,0.469-1.066,0.075-1.501   l-2.365-2.613c-0.187-0.206-0.445-0.331-0.723-0.348l-1.639-0.101c-0.034-0.003-0.062,0.011-0.095,0.011l-0.847-0.828   c0.147-0.3,0.242-0.63,0.26-0.984c0.026-0.533-0.123-1.034-0.391-1.455l2.567-4.179c0.021,0.001,0.113,0.004,0.132,0.004   c1.327,0,2.42-1.04,2.489-2.373c0.063-1.37-0.998-2.542-2.366-2.611c-0.018-0.001-0.107-0.003-0.125-0.003   c-0.883,0-1.655,0.464-2.1,1.163l-9.444-0.216c-0.071-0.462-0.224-0.893-0.439-1.289V50.65c1.258,0.855,2.985,0.895,3.212,0.895   h1.679c0.587,0,1.063-0.476,1.063-1.063c0-0.587-0.477-1.063-1.063-1.063h-1.679c-0.515,0-1.793-0.178-2.24-0.707   c-1.178-1.392-2.738-1.389-4.259-1.383l-0.176,0l-0.176,0c-1.514-0.01-3.079-0.009-4.257,1.383   c-0.445,0.526-1.704,0.703-2.241,0.706h-1.677c-0.587,0-1.063,0.476-1.063,1.063c0,0.587,0.476,1.063,1.063,1.063h1.677   c0.243,0,2.209-0.044,3.473-1.091v1.27c-0.509,0.671-0.823,1.496-0.823,2.401c0,1.204,0.546,2.272,1.391,3.005v1.126   c-0.368,0.217-0.693,0.478-0.967,0.774c-0.812,0.147-2.016,0.688-2.016,1.766v10.157c0,1.075,1.19,1.616,2.002,1.768   c0.362,0.42,0.776,0.745,1.249,0.983v0.712v3.266v0.036c-0.18,0.14-0.329,0.293-0.46,0.451c-0.646,0.209-1.113,0.817-1.113,1.532   v1.211h-1.092v-1.366c0-0.587-0.476-1.063-1.063-1.063H30.729V54.472c0-0.587-0.476-1.063-1.063-1.063h-2.221v-2.462   c0-0.587-0.476-1.063-1.063-1.063H25.6v-0.348h6.849v0.868c0,0.587,0.476,1.063,1.063,1.063h4.984c0.587,0,1.063-0.477,1.063-1.063   s-0.476-1.063-1.063-1.063h-3.921v-6.054h30.012v6.054h-4.285c-0.587,0-1.063,0.476-1.063,1.063s0.477,1.063,1.063,1.063h5.349   c0.587,0,1.063-0.477,1.063-1.063v-0.79h6.816V49.883z M65.001,55.431v0.263c-0.007-0.007-0.015-0.014-0.021-0.021l-0.007-0.243   c-0.123-0.006-0.203-0.067-0.25-0.118c-0.038-0.042-0.102-0.133-0.096-0.262c0.011-0.199,0.174-0.354,0.39-0.354c0,0,0,0,0.001,0   c0.202,0.011,0.358,0.186,0.35,0.384C65.356,55.276,65.196,55.431,65.001,55.431z M60.22,62.695   c0.202,0.011,0.359,0.186,0.35,0.388c-0.01,0.192-0.174,0.348-0.365,0.348v0.387c-0.005,0.009-0.012,0.016-0.017,0.024l-0.01-0.411   c-0.123-0.006-0.204-0.067-0.251-0.118c-0.038-0.043-0.102-0.134-0.096-0.261C59.842,62.852,60.005,62.695,60.22,62.695z    M86.749,47.487l0.011-0.013v0.013H86.749z M86.787,40.52v-1.275h1.744v1.275H86.787z"/><path fill="#000000" d="M33.844,29.657h0.014c1.952,0,3.544-1.586,3.551-3.533c0.006-0.948-0.359-1.842-1.027-2.517   c-0.668-0.675-1.558-1.049-2.51-1.054c-1.956,0-3.556,1.584-3.567,3.534C30.297,28.045,31.882,29.646,33.844,29.657z M33.866,24.68   c0.379,0.002,0.736,0.152,1.004,0.423c0.269,0.271,0.415,0.63,0.413,1.012c-0.002,0.781-0.642,1.417-1.425,1.417v1.063   l-0.008-1.063c-0.785-0.004-1.422-0.648-1.419-1.434C32.435,25.316,33.081,24.68,33.866,24.68z"/><path fill="#000000" d="M47.949,61.262c-0.587,0-1.063,0.477-1.063,1.063v7.467c0,0.587,0.476,1.063,1.063,1.063   s1.063-0.477,1.063-1.063v-7.467C49.012,61.738,48.536,61.262,47.949,61.262z"/><path fill="#000000" d="M51.18,70.855c0.587,0,1.063-0.477,1.063-1.063v-7.467c0-0.587-0.477-1.063-1.063-1.063   s-1.063,0.477-1.063,1.063v7.467C50.117,70.379,50.593,70.855,51.18,70.855z"/><path fill="#000000" d="M49.438,33.787c0.587,0,1.063-0.476,1.063-1.063v-2.125c0-0.587-0.476-1.063-1.063-1.063   s-1.063,0.476-1.063,1.063v2.125C48.375,33.311,48.851,33.787,49.438,33.787z"/><path fill="#000000" d="M49.58,79.641c-0.587,0-1.063,0.477-1.063,1.063v5.877c0,0.587,0.476,1.063,1.063,1.063   s1.063-0.477,1.063-1.063v-5.877C50.643,80.117,50.167,79.641,49.58,79.641z"/><path fill="#000000" d="M55.456,27.326h7.321c0.587,0,1.063-0.476,1.063-1.063S63.364,25.2,62.777,25.2h-7.321   c-0.587,0-1.063,0.476-1.063,1.063S54.869,27.326,55.456,27.326z"/><path fill="#000000" d="M69.84,28.632c0.587,0,1.063-0.476,1.063-1.063v-2.883c0-0.587-0.477-1.063-1.063-1.063   s-1.063,0.476-1.063,1.063v2.883C68.776,28.156,69.253,28.632,69.84,28.632z"/><path fill="#000000" d="M38.975,44.123h-2.552c-0.587,0-1.063,0.476-1.063,1.063s0.476,1.063,1.063,1.063h2.552   c0.587,0,1.063-0.476,1.063-1.063S39.562,44.123,38.975,44.123z"/><path fill="#000000" d="M44.001,44.123h-2.552c-0.587,0-1.063,0.476-1.063,1.063s0.476,1.063,1.063,1.063h2.552   c0.587,0,1.063-0.476,1.063-1.063S44.588,44.123,44.001,44.123z"/><path fill="#000000" d="M57.967,44.123h-2.551c-0.587,0-1.063,0.476-1.063,1.063s0.477,1.063,1.063,1.063h2.551   c0.587,0,1.063-0.476,1.063-1.063S58.554,44.123,57.967,44.123z"/><path fill="#000000" d="M60.441,46.249h2.553c0.587,0,1.063-0.476,1.063-1.063s-0.477-1.063-1.063-1.063h-2.553   c-0.587,0-1.063,0.476-1.063,1.063S59.854,46.249,60.441,46.249z"/></g><text x="0" y="115" fill="#000000" font-size="5px" font-weight="bold" font-family="'Helvetica Neue', Helvetica, Arial-Unicode, Arial, Sans-serif">Created by Anthony Bossard</text><text x="0" y="120" fill="#000000" font-size="5px" font-weight="bold" font-family="'Helvetica Neue', Helvetica, Arial-Unicode, Arial, Sans-serif">from the Noun Project</text></svg>
