<svg xmlns="http://www.w3.org/2000/svg" data-name="Layer 1" viewBox="0 0 64 80" x="0px" y="0px"><title>astronaut-cosmonaut-astronomy-space-avatar</title><path fill="#7a748c" d="M34,32c7.247,0,16-5.8,16-13S41.247,6,34,6,18,11.8,18,19,26.753,32,34,32Zm0-2c-6.3,0-14-5.076-14-11,0-.153.026-.3.036-.456a29.282,29.282,0,0,1,27.928,0c.01.152.036.3.036.456C48,24.924,40.3,30,34,30ZM34,8c5.182,0,11.3,3.434,13.312,7.948a31.53,31.53,0,0,0-26.624,0C22.7,11.434,28.818,8,34,8Z"/><path fill="#7a748c" d="M9,40h.288L8.21,41.386a1.008,1.008,0,0,0-.2.51h0l-2,19A1,1,0,0,0,7,62H61A1,1,0,0,0,62,60.9l-2-19h0a.991.991,0,0,0-.159-.451l-.359-.539A19.97,19.97,0,0,0,57,37.894V10a6.006,6.006,0,0,0-6-6H43.392A23.052,23.052,0,0,0,24.608,4H17a6.006,6.006,0,0,0-6,6v4.78A2.985,2.985,0,0,0,10,17H9a7.008,7.008,0,0,0-7,7v9A7.008,7.008,0,0,0,9,40Zm3-23a1,1,0,0,1,1-1h1.331a14.248,14.248,0,0,0,.555,8H13a1,1,0,0,1-1-1Zm-1,8.22V34H10a2,2,0,0,1-2-2V25a2,2,0,0,1,2-2A2.985,2.985,0,0,0,11,25.22ZM13,26h2.8a17.811,17.811,0,0,0,5.852,6.343A19.867,19.867,0,0,0,13,36.228Zm-3.111,17.1,1.29.143a7.761,7.761,0,0,1,6.815,6.608L18.377,52H8.953ZM18.734,54l.357,2H8.532l.21-2Zm.649-6.632A9.747,9.747,0,0,0,11.4,41.261l-.514-.057.2-.255a17.907,17.907,0,0,1,11.875-6.785A30.323,30.323,0,0,1,19.383,47.368ZM8.321,58H19.448l.358,2H8.111ZM41,60H27V50a1,1,0,0,1,1-1H40a1,1,0,0,1,1,1Zm5.166,0H43V50a3,3,0,0,0-3-3H28a3,3,0,0,0-3,3V60H21.837l-1.758-9.84A32.332,32.332,0,0,0,24.96,34.144a22.944,22.944,0,0,0,18.08,0,32.327,32.327,0,0,0,4.882,16.018l.017.027Zm3.123-6h9.969l.21,2H48.925Zm9.758-2H49.652l.338-1.859.041-.291a7.749,7.749,0,0,1,6.815-6.605l1.265-.14ZM48.2,60l.364-2H59.679l.21,2Zm9.027-18.809-.6.067a9.745,9.745,0,0,0-7.995,6.133,30.321,30.321,0,0,1-3.59-13.243A18,18,0,0,1,57.225,41.191ZM51,6a4,4,0,0,1,4,4V36.142a20,20,0,0,0-8.629-3.81C51.009,29.216,54,24.4,54,19A16.092,16.092,0,0,0,46.861,6Zm1,13c0,8.271-8.075,15-18,15S16,27.271,16,19,24.075,4,34,4,52,10.729,52,19ZM13,10a4,4,0,0,1,4-4h4.139a17.146,17.146,0,0,0-6.253,8H13ZM4,24a5.006,5.006,0,0,1,5-5h1v2a4,4,0,0,0-4,4v7a4,4,0,0,0,4,4h1v2H9a5.006,5.006,0,0,1-5-5Z"/><rect x="36" y="38" width="2" height="2"/><rect x="29" y="51" width="2" height="2"/><rect x="33" y="51" width="2" height="2"/><rect x="29" y="55" width="10" height="2"/><rect x="37" y="51" width="2" height="2"/><rect x="36" y="42" width="6" height="2"/><path d="M44,19c0,3.351-3.478,5.137-6.4,6.045l.6,1.91C43.3,25.366,46,22.616,46,19Z"/><text x="0" y="79" fill="#000000" font-size="5px" font-weight="bold" font-family="'Helvetica Neue', Helvetica, Arial-Unicode, Arial, Sans-serif">Created by dDara</text><text x="0" y="84" fill="#000000" font-size="5px" font-weight="bold" font-family="'Helvetica Neue', Helvetica, Arial-Unicode, Arial, Sans-serif">from the Noun Project</text></svg>
