<svg xmlns="http://www.w3.org/2000/svg" data-name="Layer 1" viewBox="0 0 100 125" x="0px" y="0px"><title>Artboard 26</title><path fill="#7a748c" d="M50,19A31,31,0,1,0,78.56,37.93,31,31,0,0,0,50,19ZM35,70a17,17,0,0,1,30,0,24.95,24.95,0,0,1-30,0Zm8-22a7,7,0,1,1,7,7A7,7,0,0,1,43,48ZM69.43,65.7A23.07,23.07,0,0,0,59.35,57a13,13,0,1,0-18.72,0A22.82,22.82,0,0,0,30.57,65.7a25,25,0,1,1,38.86,0Z"/><text x="0" y="115" fill="#000000" font-size="5px" font-weight="bold" font-family="'Helvetica Neue', Helvetica, Arial-Unicode, Arial, Sans-serif">Created by Gregor Cresnar</text><text x="0" y="120" fill="#000000" font-size="5px" font-weight="bold" font-family="'Helvetica Neue', Helvetica, Arial-Unicode, Arial, Sans-serif">from the Noun Project</text></svg>
